<?xml version="1.0"?>
<svg xmlns="http://www.w3.org/2000/svg" id="Capa_1" enable-background="new 0 0 512 512" height="512px" viewBox="0 0 512 512" width="512px" class=""><g><path d="m497 0h-482c-8.284 0-15 6.716-15 15v380c0 8.284 6.716 15 15 15h122.912c2.047 12.188 3.088 24.593 3.088 37.111v49.889c0 8.284 6.716 15 15 15s15-6.716 15-15v-47h70v47c0 8.284 6.716 15 15 15s15-6.716 15-15v-47h70v47c0 8.284 6.716 15 15 15s15-6.716 15-15v-49.889c0-12.518 1.042-24.923 3.088-37.111h122.912c8.284 0 15-6.716 15-15v-380c0-8.284-6.716-15-15-15zm-391 300c-8.271 0-15-6.729-15-15s6.729-15 15-15h300c8.271 0 15 6.729 15 15s-6.729 15-15 15zm217.686-185.206c-17.22 17.712-28.401 40.703-31.674 65.206h-21.012v-88.928c19.897 2.859 38.01 11.317 52.686 23.722zm-111.96 125.206c4.134-9.574 6.915-19.64 8.283-30h20.991v30zm-22.099-60h-37.559c2.241-15.599 7.928-30.098 16.255-42.707 10.993 11.894 18.409 26.782 21.304 42.707zm-28.405 60c-4.536-9.515-7.612-19.638-9.128-30h37.561c-1.92 10.597-5.876 20.731-11.74 30zm109.778-30h20.989c1.369 10.36 4.152 20.425 8.286 30h-29.275zm72.676-72.707c8.327 12.609 14.014 27.108 16.255 42.707h-37.559c2.896-15.925 10.312-30.813 21.304-42.707zm-9.59 102.707c-5.864-9.269-9.82-19.403-11.74-30h37.561c-1.516 10.362-4.592 20.485-9.128 30zm-93.086-60h-21.012c-3.274-24.502-14.454-47.494-31.675-65.205 14.677-12.405 32.789-20.864 52.687-23.723zm115.43 180h-85.43v-30h98.701c-5.086 9.731-9.512 19.751-13.271 30zm-115.43-30v30h-85.43c-3.76-10.249-8.185-20.269-13.271-30zm-71.445 90c-1.083-10.122-2.771-20.137-5.05-30h76.495v30zm101.445-30h76.495c-2.279 9.863-3.967 19.878-5.05 30h-71.445zm211-10h-100.694c5.504-17.453 13.166-34.236 22.892-50h1.802c24.813 0 45-20.187 45-45s-20.187-45-45-45h-22.805c5.13-14.428 7.805-29.655 7.805-45 0-74.439-60.561-135-135-135s-135 60.561-135 135c0 15.345 2.675 30.572 7.805 45h-22.805c-24.813 0-45 20.187-45 45s20.187 45 45 45h1.802c9.727 15.764 17.388 32.547 22.892 50h-100.694v-350h452z" data-original="#000000" class="active-path" data-old_color="#000000" fill="#FFFFFF"/><path d="m416.5 90h20c8.284 0 15-6.716 15-15s-6.716-15-15-15h-20c-8.284 0-15 6.716-15 15s6.716 15 15 15z" data-original="#000000" class="active-path" data-old_color="#000000" fill="#FFFFFF"/><path d="m75.5 90h20c8.284 0 15-6.716 15-15s-6.716-15-15-15h-20c-8.284 0-15 6.716-15 15s6.716 15 15 15z" data-original="#000000" class="active-path" data-old_color="#000000" fill="#FFFFFF"/></g> </svg>
