<?xml version="1.0"?>
<svg xmlns="http://www.w3.org/2000/svg" height="512px" viewBox="0 -9 512.00032 512" width="512px"><g><path d="m497 134.996094h-241.996094c-3.976562 0-7.792968 1.582031-10.605468 4.394531s-4.394532 6.628906-4.394532 10.605469v15h-30v-15c0-8.28125-6.714844-15-15-15h-24.660156c-.003906 0 .003906 0 0 0-84.941406 0-157.46875 60.789062-168.6875 141.382812-5.476562 39.34375 2.746094 77.835938 22.816406 110.214844-15.121094 11.054688-24.4648435 28.792969-24.4648435 48.398438 0 33.082031 26.9179685 60 59.9999995 60 25.0625 0 46.683594-15.414063 55.617188-37.460938 15.785156 4.929688 32.347656 7.46875 49.246094 7.46875 10.1875 0 20.5-.917969 30.832031-2.789062 32.949219-5.960938 63.078125-22.085938 87.125-46.628907 24.023437-24.511719 39.558594-54.949219 44.929687-88.011719.089844-.550781.175782-1.097656.261719-1.65625 4.859375-31.808593 28.03125-55.386718 57.632813-58.675781l112.976562-12.332031c7.609375-.828125 13.371094-7.257812 13.371094-14.910156v-90c0-8.28125-6.714844-15-15-15zm-436.992188 329.996094c-16.542968 0-30-13.457032-30-30 0-9.9375 4.796876-18.917969 12.539063-24.425782 2.625 2.894532 5.347656 5.722656 8.203125 8.460938 11.292969 10.84375 23.804688 19.855468 37.183594 26.949218-4.394532 11.175782-15.285156 19.015626-27.925782 19.015626zm322.359376-227.574219c-21.613282 2.402343-41.121094 11.980469-56.421876 27.699219-14.730468 15.140624-24.269531 34.597656-27.578124 56.253906-.070313.457031-.144532.914062-.21875 1.378906-8.914063 54.863281-53.234376 100.070312-107.785157 109.941406-27.324219 4.941406-54.425781 1.816406-78.632812-8.578125-.511719-.257812-1.035157-.5-1.578125-.699219-14.0625-6.257812-27.121094-14.976562-38.628906-26.027343-4.726563-4.535157-9.0625-9.351563-13.015626-14.398438-.199218-.257812-.398437-.519531-.609374-.765625-22.089844-28.613281-31.679688-64.695312-26.53125-101.707031 9.167968-65.855469 68.914062-115.519531 138.976562-115.519531h9.660156v15c0 8.285156 6.71875 15 15 15h60c8.285156 0 15-6.714844 15-15v-15h149.996094v68.316406zm99.632812-10.875-32 3.492187v-65.039062h32zm0 0" data-original="#000000" class="active-path" data-old_color="#000000" fill="#FFFFFF"/><path d="m225.003906 75c8.285156 0 15-6.71875 15-15v-45c0-8.285156-6.714844-15-15-15-8.28125 0-15 6.714844-15 15v45c0 8.28125 6.71875 15 15 15zm0 0" data-original="#000000" class="active-path" data-old_color="#000000" fill="#FFFFFF"/><path d="m285.003906 105c3.839844 0 7.675782-1.464844 10.605469-4.394531l30-30c5.859375-5.859375 5.859375-15.355469 0-21.210938-5.855469-5.859375-15.355469-5.859375-21.214844 0l-29.996093 30c-5.859376 5.855469-5.859376 15.351563 0 21.210938 2.925781 2.925781 6.765624 4.394531 10.605468 4.394531zm0 0" data-original="#000000" class="active-path" data-old_color="#000000" fill="#FFFFFF"/><path d="m154.398438 100.605469c2.929687 2.929687 6.769531 4.394531 10.605468 4.394531 3.839844 0 7.679688-1.464844 10.605469-4.394531 5.859375-5.859375 5.859375-15.355469 0-21.210938l-29.996094-30c-5.859375-5.859375-15.355469-5.859375-21.214843 0-5.859376 5.855469-5.859376 15.351563 0 21.210938zm0 0" data-original="#000000" class="active-path" data-old_color="#000000" fill="#FFFFFF"/><path d="m165.007812 224.996094c-41.355468 0-75 33.644531-75 75 0 41.351562 33.644532 74.996094 75 74.996094 41.351563 0 74.996094-33.644532 74.996094-74.996094 0-41.355469-33.644531-75-74.996094-75zm0 119.996094c-24.8125 0-45-20.183594-45-44.996094s20.1875-45 45-45 44.996094 20.1875 44.996094 45-20.183594 44.996094-44.996094 44.996094zm0 0" data-original="#000000" class="active-path" data-old_color="#000000" fill="#FFFFFF"/></g> </svg>
